

<?xml version="1.0" standalone="no"?>
<!DOCTYPE svg PUBLIC "-//W3C//DTD SVG 20010904//EN"
 "http://www.w3.org/TR/2001/REC-SVG-20010904/DTD/svg10.dtd">
<svg version="1.0" xmlns="http://www.w3.org/2000/svg"
 width="270.000000pt" height="226.000000pt" viewBox="0 0 270.000000 226.000000"
 preserveAspectRatio="xMidYMid meet">

<g transform="translate(0.000000,226.000000) scale(0.100000,-0.100000)"
fill="#000000" stroke="none">
<path d="M1687 1869 c-182 -27 -275 -176 -222 -357 28 -94 111 -155 340 -252
167 -70 228 -116 259 -192 20 -46 21 -138 3 -181 -31 -73 -139 -137 -258 -152
-103 -13 -296 32 -351 82 -10 9 -18 11 -18 5 0 -18 120 -71 195 -87 185 -39
374 -1 455 91 58 66 73 114 68 218 -5 106 -32 171 -94 226 -41 36 -170 99
-304 150 -102 39 -168 80 -201 128 -20 30 -24 48 -24 108 0 65 3 76 31 111 38
48 105 82 184 93 34 5 65 11 68 14 7 8 -61 5 -131 -5z"/>
<path d="M886 1862 c-2 -4 -109 -255 -236 -557 -128 -303 -236 -558 -241 -567
-6 -11 -6 -18 -1 -18 5 0 44 81 87 180 l77 180 243 0 242 0 64 -180 64 -180
69 0 c50 0 67 3 64 13 -215 599 -413 1137 -419 1137 -4 0 -10 -3 -13 -8z m64
-481 c55 -155 100 -284 100 -286 0 -3 -106 -5 -235 -5 -129 0 -235 3 -235 6 0
3 57 138 127 300 81 187 130 290 135 281 4 -8 52 -141 108 -296z"/>
<path d="M1853 1863 c15 -2 37 -2 50 0 12 2 0 4 -28 4 -27 0 -38 -2 -22 -4z"/>
<path d="M1995 1840 c39 -10 79 -22 90 -26 14 -5 17 -4 10 4 -11 12 -122 42
-151 41 -11 0 13 -8 51 -19z"/>
<path d="M440 408 c0 -46 5 -90 10 -98 7 -10 10 16 10 83 0 58 -4 97 -10 97
-6 0 -10 -34 -10 -82z"/>
<path d="M2080 395 c0 -57 4 -95 10 -95 6 0 10 38 10 95 0 57 -4 95 -10 95 -6
0 -10 -38 -10 -95z"/>
<path d="M1400 464 c0 -24 39 -145 51 -158 16 -18 10 18 -16 94 -27 80 -35 94
-35 64z"/>
<path d="M1517 467 c-6 -17 8 -156 18 -166 11 -11 12 9 1 94 -7 56 -14 83 -19
72z"/>
<path d="M1690 390 c0 -53 4 -90 10 -90 6 0 10 37 10 90 0 53 -4 90 -10 90 -6
0 -10 -37 -10 -90z"/>
<path d="M1780 465 c8 -9 10 -27 6 -47 -4 -20 -3 -29 3 -23 20 21 17 71 -5 79
-14 5 -15 4 -4 -9z"/>
<path d="M127 464 c-3 -3 6 -36 19 -72 14 -37 27 -73 30 -81 2 -8 7 -11 10 -8
5 5 -44 167 -50 167 -2 0 -5 -3 -9 -6z"/>
<path d="M1141 444 c-1 -24 23 -48 57 -58 26 -8 46 -41 36 -59 -5 -9 -4 -9 6
0 21 19 -4 61 -45 79 -20 8 -40 25 -45 37 -9 21 -9 21 -9 1z"/>
<path d="M223 365 c0 -38 2 -53 4 -32 2 20 2 52 0 70 -2 17 -4 1 -4 -38z"/>
<path d="M298 372 c2 -31 7 -61 11 -65 9 -9 1 105 -8 115 -3 4 -4 -19 -3 -50z"/>
<path d="M503 365 c0 -38 2 -53 4 -32 2 20 2 52 0 70 -2 17 -4 1 -4 -38z"/>
<path d="M550 420 c0 -5 5 -10 10 -10 6 0 10 5 10 10 0 6 -4 10 -10 10 -5 0
-10 -4 -10 -10z"/>
<path d="M713 414 c-6 -17 4 -31 38 -48 13 -6 26 -22 29 -36 5 -22 7 -23 13
-7 10 26 11 24 -33 52 -26 17 -38 30 -34 40 4 8 3 15 0 15 -4 0 -9 -7 -13 -16z"/>
<path d="M998 369 c2 -33 8 -59 13 -59 14 0 11 107 -3 113 -10 3 -12 -10 -10
-54z"/>
<path d="M1900 376 c0 -30 5 -58 10 -61 6 -4 10 15 10 49 0 30 -4 58 -10 61
-6 4 -10 -15 -10 -49z"/>
<path d="M2167 377 c6 -75 11 -81 12 -15 1 31 -3 59 -7 62 -5 3 -7 -18 -5 -47z"/>
<path d="M362 408 c-15 -15 -15 -67 -1 -88 7 -11 8 -5 3 21 -3 21 -1 46 5 58
13 24 11 27 -7 9z"/>
<path d="M590 394 c-13 -33 -13 -47 3 -67 10 -15 12 -9 12 38 0 30 -1 55 -3
55 -1 0 -7 -12 -12 -26z"/>
<path d="M670 406 c0 -8 5 -18 10 -21 6 -3 10 1 10 9 0 8 -4 18 -10 21 -5 3
-10 -1 -10 -9z"/>
<path d="M821 404 c-1 -14 10 -25 35 -37 28 -14 35 -22 31 -37 -3 -11 -1 -18
4 -14 22 13 8 45 -25 59 -19 8 -37 23 -39 32 -4 15 -5 14 -6 -3z"/>
<path d="M2232 408 c-14 -14 -16 -74 -2 -83 6 -4 7 5 4 23 -3 16 -1 39 5 51
13 24 11 27 -7 9z"/>
<path d="M2307 399 c4 -13 8 -18 11 -10 2 7 -1 18 -6 23 -8 8 -9 4 -5 -13z"/>
<path d="M2565 370 c0 -30 4 -45 9 -40 5 5 9 23 9 40 0 17 -4 35 -9 40 -5 5
-9 -10 -9 -40z"/>
<path d="M1967 403 c-10 -9 -9 -81 1 -86 4 -3 7 17 7 44 0 27 0 49 -1 49 0 0
-4 -3 -7 -7z"/>
<path d="M2357 403 c-9 -9 -9 -65 1 -80 4 -6 7 11 7 38 0 27 0 49 -1 49 0 0
-4 -3 -7 -7z"/>
<path d="M2477 403 c-10 -9 -9 -81 1 -86 4 -3 7 17 7 44 0 27 0 49 -1 49 0 0
-4 -3 -7 -7z"/>
<path d="M937 353 c-9 -9 -9 -41 1 -46 4 -3 7 8 7 24 0 16 0 29 -1 29 0 0 -4
-3 -7 -7z"/>
<path d="M1837 353 c-9 -9 -9 -41 1 -46 4 -3 7 8 7 24 0 16 0 29 -1 29 0 0 -4
-3 -7 -7z"/>
</g>
</svg>
